STARTFONT 2.1
COMMENT screen bold font, 8 x 12 pixels
FONT -misc-fixed-bold-r-normal--12-120-75-75-c-80-iso8859-2
SIZE 12 75 75
FONTBOUNDINGBOX 8 12 0 -1
STARTPROPERTIES 25
FONT_ASCENT 11
FONT_DESCENT 1
DEFAULT_CHAR 0
FONTNAME_REGISTRY ""
FOUNDRY "Misc"
FAMILY_NAME "Fixed"
WEIGHT_NAME "Bold"
SLANT "R"
SETWIDTH_NAME "Normal"
ADD_STYLE_NAME ""
PIXEL_SIZE 12
POINT_SIZE 120
RESOLUTION_X 75
RESOLUTION_Y 75
SPACING "C"
AVERAGE_WIDTH 80
CHARSET_REGISTRY "ISO8859"
CHARSET_ENCODING "2"
COPYRIGHT "Libor Skarvada, libor@informatics.muni.cz"
FONT "-Misc-Fixed-Bold-R-Normal--12-120-75-75-C-80-ISO8859-2"
WEIGHT 10
RESOLUTION 107
CAP_HEIGHT 8
X_HEIGHT 6
QUAD_WIDTH 8
ENDPROPERTIES
CHARS 224
STARTCHAR 0
ENCODING 0
SWIDTH 640 0
DWIDTH 8 0
BBX 1 1 0 -1
BITMAP
00
ENDCHAR
STARTCHAR 1
ENCODING 1
SWIDTH 640 0
DWIDTH 8 0
BBX 7 7 0 1
BITMAP
10
38
7c
fe
7c
38
10
ENDCHAR
STARTCHAR 2
ENCODING 2
SWIDTH 640 0
DWIDTH 8 0
BBX 8 12 0 -1
BITMAP
6b
d6
6b
d6
6b
d6
6b
d6
6b
d6
6b
d6
ENDCHAR
STARTCHAR 3
ENCODING 3
SWIDTH 640 0
DWIDTH 8 0
BBX 7 11 0 -1
BITMAP
cc
cc
fc
cc
cc
00
7e
18
18
18
18
ENDCHAR
STARTCHAR 4
ENCODING 4
SWIDTH 640 0
DWIDTH 8 0
BBX 7 11 0 -1
BITMAP
f8
c0
f0
c0
c0
00
3e
30
3c
30
30
ENDCHAR
STARTCHAR 5
ENCODING 5
SWIDTH 640 0
DWIDTH 8 0
BBX 7 11 0 -1
BITMAP
7c
c4
c0
c4
7c
00
7c
66
7c
66
66
ENDCHAR
STARTCHAR 6
ENCODING 6
SWIDTH 640 0
DWIDTH 8 0
BBX 7 11 0 -1
BITMAP
c0
c0
c0
c0
f8
00
3e
30
3c
30
30
ENDCHAR
STARTCHAR 7
ENCODING 7
SWIDTH 640 0
DWIDTH 8 0
BBX 6 4 1 5
BITMAP
78
cc
cc
78
ENDCHAR
STARTCHAR 8
ENCODING 8
SWIDTH 640 0
DWIDTH 8 0
BBX 6 9 1 0
BITMAP
30
30
fc
fc
30
30
00
fc
fc
ENDCHAR
STARTCHAR 9
ENCODING 9
SWIDTH 640 0
DWIDTH 8 0
BBX 7 11 0 -1
BITMAP
cc
ec
fc
dc
cc
00
30
30
30
30
3e
ENDCHAR
STARTCHAR 10
ENCODING 10
SWIDTH 640 0
DWIDTH 8 0
BBX 7 11 0 -1
BITMAP
cc
cc
48
78
30
00
7e
18
18
18
18
ENDCHAR
STARTCHAR 11
ENCODING 11
SWIDTH 640 0
DWIDTH 8 0
BBX 5 7 0 4
BITMAP
18
18
18
18
18
f8
f8
ENDCHAR
STARTCHAR 12
ENCODING 12
SWIDTH 640 0
DWIDTH 8 0
BBX 5 7 0 -1
BITMAP
f8
f8
18
18
18
18
18
ENDCHAR
STARTCHAR 13
ENCODING 13
SWIDTH 640 0
DWIDTH 8 0
BBX 5 7 3 -1
BITMAP
f8
f8
c0
c0
c0
c0
c0
ENDCHAR
STARTCHAR 14
ENCODING 14
SWIDTH 640 0
DWIDTH 8 0
BBX 5 7 3 4
BITMAP
c0
c0
c0
c0
c0
f8
f8
ENDCHAR
STARTCHAR 15
ENCODING 15
SWIDTH 640 0
DWIDTH 8 0
BBX 8 12 0 -1
BITMAP
18
18
18
18
18
ff
ff
18
18
18
18
18
ENDCHAR
STARTCHAR 16
ENCODING 16
SWIDTH 640 0
DWIDTH 8 0
BBX 8 2 0 8
BITMAP
ff
ff
ENDCHAR
STARTCHAR 17
ENCODING 17
SWIDTH 640 0
DWIDTH 8 0
BBX 8 2 0 6
BITMAP
ff
ff
ENDCHAR
STARTCHAR 18
ENCODING 18
SWIDTH 640 0
DWIDTH 8 0
BBX 8 2 0 4
BITMAP
ff
ff
ENDCHAR
STARTCHAR 19
ENCODING 19
SWIDTH 640 0
DWIDTH 8 0
BBX 8 2 0 2
BITMAP
ff
ff
ENDCHAR
STARTCHAR 20
ENCODING 20
SWIDTH 640 0
DWIDTH 8 0
BBX 8 2 0 0
BITMAP
ff
ff
ENDCHAR
STARTCHAR 21
ENCODING 21
SWIDTH 640 0
DWIDTH 8 0
BBX 5 12 3 -1
BITMAP
c0
c0
c0
c0
c0
f8
f8
c0
c0
c0
c0
c0
ENDCHAR
STARTCHAR 22
ENCODING 22
SWIDTH 640 0
DWIDTH 8 0
BBX 5 12 0 -1
BITMAP
18
18
18
18
18
f8
f8
18
18
18
18
18
ENDCHAR
STARTCHAR 23
ENCODING 23
SWIDTH 640 0
DWIDTH 8 0
BBX 8 7 0 4
BITMAP
18
18
18
18
18
ff
ff
ENDCHAR
STARTCHAR 24
ENCODING 24
SWIDTH 640 0
DWIDTH 8 0
BBX 8 7 0 -1
BITMAP
ff
ff
18
18
18
18
18
ENDCHAR
STARTCHAR 25
ENCODING 25
SWIDTH 640 0
DWIDTH 8 0
BBX 2 12 3 -1
BITMAP
c0
c0
c0
c0
c0
c0
c0
c0
c0
c0
c0
c0
ENDCHAR
STARTCHAR 26
ENCODING 26
SWIDTH 640 0
DWIDTH 8 0
BBX 7 8 0 1
BITMAP
1e
78
c0
78
1e
00
fe
fe
ENDCHAR
STARTCHAR 27
ENCODING 27
SWIDTH 640 0
DWIDTH 8 0
BBX 7 8 0 1
BITMAP
f0
3c
06
3c
f0
00
fe
fe
ENDCHAR
STARTCHAR 28
ENCODING 28
SWIDTH 640 0
DWIDTH 8 0
BBX 7 7 0 0
BITMAP
fe
fe
6c
6c
6c
ec
cc
ENDCHAR
STARTCHAR 29
ENCODING 29
SWIDTH 640 0
DWIDTH 8 0
BBX 7 9 0 -1
BITMAP
06
0c
fe
fe
38
fe
fe
60
c0
ENDCHAR
STARTCHAR 30
ENCODING 30
SWIDTH 640 0
DWIDTH 8 0
BBX 7 10 0 -1
BITMAP
3c
66
60
60
fc
60
60
f0
be
e0
ENDCHAR
STARTCHAR 31
ENCODING 31
SWIDTH 640 0
DWIDTH 8 0
BBX 2 2 3 3
BITMAP
c0
c0
ENDCHAR
STARTCHAR 32
ENCODING 32
SWIDTH 640 0
DWIDTH 8 0
BBX 1 1 0 -1
BITMAP
00
ENDCHAR
STARTCHAR 33
ENCODING 33
SWIDTH 640 0
DWIDTH 8 0
BBX 2 8 3 0
BITMAP
c0
c0
c0
c0
c0
00
c0
c0
ENDCHAR
STARTCHAR 34
ENCODING 34
SWIDTH 640 0
DWIDTH 8 0
BBX 5 3 1 5
BITMAP
d8
d8
50
ENDCHAR
STARTCHAR 35
ENCODING 35
SWIDTH 640 0
DWIDTH 8 0
BBX 7 9 0 -1
BITMAP
6c
6c
fe
fe
6c
fe
fe
6c
6c
ENDCHAR
STARTCHAR 36
ENCODING 36
SWIDTH 640 0
DWIDTH 8 0
BBX 7 9 0 -1
BITMAP
10
7c
d6
d0
3c
16
d6
7c
10
ENDCHAR
STARTCHAR 37
ENCODING 37
SWIDTH 640 0
DWIDTH 8 0
BBX 7 8 0 0
BITMAP
e6
a6
ec
18
30
6e
ca
ce
ENDCHAR
STARTCHAR 38
ENCODING 38
SWIDTH 640 0
DWIDTH 8 0
BBX 7 8 0 0
BITMAP
78
cc
cc
78
78
ce
cc
7e
ENDCHAR
STARTCHAR 39
ENCODING 39
SWIDTH 640 0
DWIDTH 8 0
BBX 3 4 2 4
BITMAP
e0
60
60
c0
ENDCHAR
STARTCHAR 40
ENCODING 40
SWIDTH 640 0
DWIDTH 8 0
BBX 5 10 2 -1
BITMAP
38
60
60
c0
c0
c0
c0
60
60
38
ENDCHAR
STARTCHAR 41
ENCODING 41
SWIDTH 640 0
DWIDTH 8 0
BBX 5 10 1 -1
BITMAP
e0
30
30
18
18
18
18
30
30
e0
ENDCHAR
STARTCHAR 42
ENCODING 42
SWIDTH 640 0
DWIDTH 8 0
BBX 7 9 0 0
BITMAP
10
d6
7c
38
ee
38
7c
d6
10
ENDCHAR
STARTCHAR 43
ENCODING 43
SWIDTH 640 0
DWIDTH 8 0
BBX 6 6 1 1
BITMAP
30
30
fc
fc
30
30
ENDCHAR
STARTCHAR 44
ENCODING 44
SWIDTH 640 0
DWIDTH 8 0
BBX 4 3 2 -1
BITMAP
70
60
c0
ENDCHAR
STARTCHAR 45
ENCODING 45
SWIDTH 640 0
DWIDTH 8 0
BBX 7 2 0 2
BITMAP
fe
fe
ENDCHAR
STARTCHAR 46
ENCODING 46
SWIDTH 640 0
DWIDTH 8 0
BBX 3 3 2 -1
BITMAP
40
e0
40
ENDCHAR
STARTCHAR 47
ENCODING 47
SWIDTH 640 0
DWIDTH 8 0
BBX 7 8 0 0
BITMAP
02
06
0c
18
30
60
c0
80
ENDCHAR
STARTCHAR 48
ENCODING 48
SWIDTH 640 0
DWIDTH 8 0
BBX 7 8 0 0
BITMAP
38
6c
c6
c6
c6
c6
6c
38
ENDCHAR
STARTCHAR 49
ENCODING 49
SWIDTH 640 0
DWIDTH 8 0
BBX 6 8 1 0
BITMAP
30
70
f0
30
30
30
30
fc
ENDCHAR
STARTCHAR 50
ENCODING 50
SWIDTH 640 0
DWIDTH 8 0
BBX 7 8 0 0
BITMAP
7c
c6
c6
0e
38
e0
c0
fe
ENDCHAR
STARTCHAR 51
ENCODING 51
SWIDTH 640 0
DWIDTH 8 0
BBX 7 8 0 0
BITMAP
7c
c6
06
3c
06
06
c6
7c
ENDCHAR
STARTCHAR 52
ENCODING 52
SWIDTH 640 0
DWIDTH 8 0
BBX 7 8 0 0
BITMAP
0c
1c
3c
6c
cc
fe
0c
0c
ENDCHAR
STARTCHAR 53
ENCODING 53
SWIDTH 640 0
DWIDTH 8 0
BBX 7 8 0 0
BITMAP
fe
c0
fc
e6
06
06
c6
7c
ENDCHAR
STARTCHAR 54
ENCODING 54
SWIDTH 640 0
DWIDTH 8 0
BBX 7 8 0 0
BITMAP
3c
60
c0
fc
e6
c6
e6
7c
ENDCHAR
STARTCHAR 55
ENCODING 55
SWIDTH 640 0
DWIDTH 8 0
BBX 7 8 0 0
BITMAP
fe
06
06
0c
18
18
30
30
ENDCHAR
STARTCHAR 56
ENCODING 56
SWIDTH 640 0
DWIDTH 8 0
BBX 7 8 0 0
BITMAP
7c
c6
c6
7c
c6
c6
c6
7c
ENDCHAR
STARTCHAR 57
ENCODING 57
SWIDTH 640 0
DWIDTH 8 0
BBX 7 8 0 0
BITMAP
7c
ce
c6
ce
7e
06
0c
78
ENDCHAR
STARTCHAR 58
ENCODING 58
SWIDTH 640 0
DWIDTH 8 0
BBX 3 8 2 -1
BITMAP
40
e0
40
00
00
40
e0
40
ENDCHAR
STARTCHAR 59
ENCODING 59
SWIDTH 640 0
DWIDTH 8 0
BBX 4 7 1 -1
BITMAP
20
70
20
00
70
60
c0
ENDCHAR
STARTCHAR 60
ENCODING 60
SWIDTH 640 0
DWIDTH 8 0
BBX 5 7 1 0
BITMAP
18
30
60
c0
60
30
18
ENDCHAR
STARTCHAR 61
ENCODING 61
SWIDTH 640 0
DWIDTH 8 0
BBX 6 5 1 1
BITMAP
fc
fc
00
fc
fc
ENDCHAR
STARTCHAR 62
ENCODING 62
SWIDTH 640 0
DWIDTH 8 0
BBX 5 7 2 0
BITMAP
c0
60
30
18
30
60
c0
ENDCHAR
STARTCHAR 63
ENCODING 63
SWIDTH 640 0
DWIDTH 8 0
BBX 7 9 0 -1
BITMAP
7c
c6
06
0c
18
18
00
18
18
ENDCHAR
STARTCHAR 64
ENCODING 64
SWIDTH 640 0
DWIDTH 8 0
BBX 7 8 0 0
BITMAP
7c
fe
c6
ce
d2
de
e0
7e
ENDCHAR
STARTCHAR 65
ENCODING 65
SWIDTH 640 0
DWIDTH 8 0
BBX 7 8 0 0
BITMAP
38
7c
c6
c6
c6
fe
c6
c6
ENDCHAR
STARTCHAR 66
ENCODING 66
SWIDTH 640 0
DWIDTH 8 0
BBX 7 8 0 0
BITMAP
fc
66
66
7c
66
66
66
fc
ENDCHAR
STARTCHAR 67
ENCODING 67
SWIDTH 640 0
DWIDTH 8 0
BBX 7 8 0 0
BITMAP
7c
e6
c0
c0
c0
c0
e6
7c
ENDCHAR
STARTCHAR 68
ENCODING 68
SWIDTH 640 0
DWIDTH 8 0
BBX 7 8 0 0
BITMAP
fc
66
66
66
66
66
66
fc
ENDCHAR
STARTCHAR 69
ENCODING 69
SWIDTH 640 0
DWIDTH 8 0
BBX 7 8 0 0
BITMAP
fe
c2
c0
f8
c0
c0
c2
fe
ENDCHAR
STARTCHAR 70
ENCODING 70
SWIDTH 640 0
DWIDTH 8 0
BBX 7 8 0 0
BITMAP
fe
c2
c0
f8
c0
c0
c0
c0
ENDCHAR
STARTCHAR 71
ENCODING 71
SWIDTH 640 0
DWIDTH 8 0
BBX 7 8 0 0
BITMAP
7c
c6
c0
c0
ce
c6
c6
7e
ENDCHAR
STARTCHAR 72
ENCODING 72
SWIDTH 640 0
DWIDTH 8 0
BBX 7 8 0 0
BITMAP
c6
c6
c6
fe
c6
c6
c6
c6
ENDCHAR
STARTCHAR 73
ENCODING 73
SWIDTH 640 0
DWIDTH 8 0
BBX 4 8 2 0
BITMAP
f0
60
60
60
60
60
60
f0
ENDCHAR
STARTCHAR 74
ENCODING 74
SWIDTH 640 0
DWIDTH 8 0
BBX 7 8 0 0
BITMAP
06
06
06
06
06
06
c6
7c
ENDCHAR
STARTCHAR 75
ENCODING 75
SWIDTH 640 0
DWIDTH 8 0
BBX 7 8 0 0
BITMAP
c6
cc
d8
f0
f0
d8
cc
c6
ENDCHAR
STARTCHAR 76
ENCODING 76
SWIDTH 640 0
DWIDTH 8 0
BBX 7 8 0 0
BITMAP
c0
c0
c0
c0
c0
c0
c2
fe
ENDCHAR
STARTCHAR 77
ENCODING 77
SWIDTH 640 0
DWIDTH 8 0
BBX 7 8 0 0
BITMAP
c6
c6
ee
fe
d6
c6
c6
c6
ENDCHAR
STARTCHAR 78
ENCODING 78
SWIDTH 640 0
DWIDTH 8 0
BBX 7 8 0 0
BITMAP
c6
e6
e6
f6
de
ce
ce
c6
ENDCHAR
STARTCHAR 79
ENCODING 79
SWIDTH 640 0
DWIDTH 8 0
BBX 7 8 0 0
BITMAP
7c
c6
c6
c6
c6
c6
c6
7c
ENDCHAR
STARTCHAR 80
ENCODING 80
SWIDTH 640 0
DWIDTH 8 0
BBX 7 8 0 0
BITMAP
fc
c6
c6
c6
fc
c0
c0
c0
ENDCHAR
STARTCHAR 81
ENCODING 81
SWIDTH 640 0
DWIDTH 8 0
BBX 7 9 0 -1
BITMAP
7c
c6
c6
c6
c6
c6
de
7c
06
ENDCHAR
STARTCHAR 82
ENCODING 82
SWIDTH 640 0
DWIDTH 8 0
BBX 7 8 0 0
BITMAP
fc
c6
c6
c6
fc
f8
cc
c6
ENDCHAR
STARTCHAR 83
ENCODING 83
SWIDTH 640 0
DWIDTH 8 0
BBX 7 8 0 0
BITMAP
7c
c6
c0
78
1c
06
c6
7c
ENDCHAR
STARTCHAR 84
ENCODING 84
SWIDTH 640 0
DWIDTH 8 0
BBX 6 8 1 0
BITMAP
fc
30
30
30
30
30
30
30
ENDCHAR
STARTCHAR 85
ENCODING 85
SWIDTH 640 0
DWIDTH 8 0
BBX 7 8 0 0
BITMAP
c6
c6
c6
c6
c6
c6
c6
7c
ENDCHAR
STARTCHAR 86
ENCODING 86
SWIDTH 640 0
DWIDTH 8 0
BBX 7 8 0 0
BITMAP
c6
c6
c6
6c
6c
38
38
10
ENDCHAR
STARTCHAR 87
ENCODING 87
SWIDTH 640 0
DWIDTH 8 0
BBX 7 8 0 0
BITMAP
c6
c6
d6
d6
d6
fe
ee
44
ENDCHAR
STARTCHAR 88
ENCODING 88
SWIDTH 640 0
DWIDTH 8 0
BBX 7 8 0 0
BITMAP
c6
c6
6c
38
38
6c
c6
c6
ENDCHAR
STARTCHAR 89
ENCODING 89
SWIDTH 640 0
DWIDTH 8 0
BBX 6 8 1 0
BITMAP
cc
cc
cc
78
30
30
30
30
ENDCHAR
STARTCHAR 90
ENCODING 90
SWIDTH 640 0
DWIDTH 8 0
BBX 7 8 0 0
BITMAP
fe
06
0c
18
30
60
c0
fe
ENDCHAR
STARTCHAR 91
ENCODING 91
SWIDTH 640 0
DWIDTH 8 0
BBX 5 8 1 0
BITMAP
f8
c0
c0
c0
c0
c0
c0
f8
ENDCHAR
STARTCHAR 92
ENCODING 92
SWIDTH 640 0
DWIDTH 8 0
BBX 7 8 0 0
BITMAP
80
c0
60
30
18
0c
06
02
ENDCHAR
STARTCHAR 93
ENCODING 93
SWIDTH 640 0
DWIDTH 8 0
BBX 5 8 1 0
BITMAP
f8
18
18
18
18
18
18
f8
ENDCHAR
STARTCHAR 94
ENCODING 94
SWIDTH 640 0
DWIDTH 8 0
BBX 5 3 1 5
BITMAP
20
70
d8
ENDCHAR
STARTCHAR 95
ENCODING 95
SWIDTH 640 0
DWIDTH 8 0
BBX 7 1 0 -1
BITMAP
fe
ENDCHAR
STARTCHAR 96
ENCODING 96
SWIDTH 640 0
DWIDTH 8 0
BBX 3 4 2 4
BITMAP
e0
c0
c0
60
ENDCHAR
STARTCHAR 97
ENCODING 97
SWIDTH 640 0
DWIDTH 8 0
BBX 7 6 0 0
BITMAP
7c
06
7e
c6
ce
7e
ENDCHAR
STARTCHAR 98
ENCODING 98
SWIDTH 640 0
DWIDTH 8 0
BBX 7 9 0 0
BITMAP
c0
c0
c0
fc
e6
c6
c6
e6
fc
ENDCHAR
STARTCHAR 99
ENCODING 99
SWIDTH 640 0
DWIDTH 8 0
BBX 7 6 0 0
BITMAP
7c
e6
c0
c0
e6
7c
ENDCHAR
STARTCHAR 100
ENCODING 100
SWIDTH 640 0
DWIDTH 8 0
BBX 7 9 0 0
BITMAP
06
06
06
7e
ce
c6
c6
ce
7e
ENDCHAR
STARTCHAR 101
ENCODING 101
SWIDTH 640 0
DWIDTH 8 0
BBX 7 6 0 0
BITMAP
7c
c6
c6
fe
c0
7c
ENDCHAR
STARTCHAR 102
ENCODING 102
SWIDTH 640 0
DWIDTH 8 0
BBX 7 9 0 0
BITMAP
3c
66
60
60
fc
60
60
60
60
ENDCHAR
STARTCHAR 103
ENCODING 103
SWIDTH 640 0
DWIDTH 8 0
BBX 7 8 0 -1
BITMAP
04
78
cc
78
f0
7c
c6
7c
ENDCHAR
STARTCHAR 104
ENCODING 104
SWIDTH 640 0
DWIDTH 8 0
BBX 7 9 0 0
BITMAP
c0
c0
c0
fc
e6
c6
c6
c6
c6
ENDCHAR
STARTCHAR 105
ENCODING 105
SWIDTH 640 0
DWIDTH 8 0
BBX 4 9 2 0
BITMAP
60
60
00
e0
60
60
60
60
f0
ENDCHAR
STARTCHAR 106
ENCODING 106
SWIDTH 640 0
DWIDTH 8 0
BBX 7 10 0 -1
BITMAP
06
06
00
0e
06
06
06
06
c6
7c
ENDCHAR
STARTCHAR 107
ENCODING 107
SWIDTH 640 0
DWIDTH 8 0
BBX 7 9 0 0
BITMAP
c0
c0
c0
cc
d8
f0
d8
cc
c6
ENDCHAR
STARTCHAR 108
ENCODING 108
SWIDTH 640 0
DWIDTH 8 0
BBX 4 9 2 0
BITMAP
e0
60
60
60
60
60
60
60
f0
ENDCHAR
STARTCHAR 109
ENCODING 109
SWIDTH 640 0
DWIDTH 8 0
BBX 7 6 0 0
BITMAP
ec
fe
d6
d6
c6
c6
ENDCHAR
STARTCHAR 110
ENCODING 110
SWIDTH 640 0
DWIDTH 8 0
BBX 7 6 0 0
BITMAP
fc
e6
c6
c6
c6
c6
ENDCHAR
STARTCHAR 111
ENCODING 111
SWIDTH 640 0
DWIDTH 8 0
BBX 7 6 0 0
BITMAP
7c
c6
c6
c6
c6
7c
ENDCHAR
STARTCHAR 112
ENCODING 112
SWIDTH 640 0
DWIDTH 8 0
BBX 7 7 0 -1
BITMAP
fc
e6
c6
e6
f6
dc
c0
ENDCHAR
STARTCHAR 113
ENCODING 113
SWIDTH 640 0
DWIDTH 8 0
BBX 7 7 0 -1
BITMAP
7e
ce
c6
ce
de
76
06
ENDCHAR
STARTCHAR 114
ENCODING 114
SWIDTH 640 0
DWIDTH 8 0
BBX 7 6 0 0
BITMAP
fc
e6
c0
c0
c0
c0
ENDCHAR
STARTCHAR 115
ENCODING 115
SWIDTH 640 0
DWIDTH 8 0
BBX 7 6 0 0
BITMAP
7c
c6
70
1c
c6
7c
ENDCHAR
STARTCHAR 116
ENCODING 116
SWIDTH 640 0
DWIDTH 8 0
BBX 7 8 0 0
BITMAP
60
60
fc
60
60
60
66
3c
ENDCHAR
STARTCHAR 117
ENCODING 117
SWIDTH 640 0
DWIDTH 8 0
BBX 7 6 0 0
BITMAP
c6
c6
c6
c6
ce
7e
ENDCHAR
STARTCHAR 118
ENCODING 118
SWIDTH 640 0
DWIDTH 8 0
BBX 7 6 0 0
BITMAP
c6
c6
c6
6c
38
10
ENDCHAR
STARTCHAR 119
ENCODING 119
SWIDTH 640 0
DWIDTH 8 0
BBX 7 6 0 0
BITMAP
c6
c6
d6
d6
fe
6c
ENDCHAR
STARTCHAR 120
ENCODING 120
SWIDTH 640 0
DWIDTH 8 0
BBX 7 6 0 0
BITMAP
c6
6c
38
38
6c
c6
ENDCHAR
STARTCHAR 121
ENCODING 121
SWIDTH 640 0
DWIDTH 8 0
BBX 7 7 0 -1
BITMAP
c6
c6
c6
ce
7e
06
7c
ENDCHAR
STARTCHAR 122
ENCODING 122
SWIDTH 640 0
DWIDTH 8 0
BBX 7 6 0 0
BITMAP
fe
0c
18
30
60
fe
ENDCHAR
STARTCHAR 123
ENCODING 123
SWIDTH 640 0
DWIDTH 8 0
BBX 6 9 1 0
BITMAP
3c
60
60
30
e0
30
60
60
3c
ENDCHAR
STARTCHAR 124
ENCODING 124
SWIDTH 640 0
DWIDTH 8 0
BBX 2 9 3 0
BITMAP
c0
c0
c0
c0
c0
c0
c0
c0
c0
ENDCHAR
STARTCHAR 125
ENCODING 125
SWIDTH 640 0
DWIDTH 8 0
BBX 6 9 1 0
BITMAP
f0
18
18
30
1c
30
18
18
f0
ENDCHAR
STARTCHAR 126
ENCODING 126
SWIDTH 640 0
DWIDTH 8 0
BBX 7 3 0 5
BITMAP
72
fe
9c
ENDCHAR
STARTCHAR 127
ENCODING 127
SWIDTH 640 0
DWIDTH 8 0
BBX 1 1 0 -1
BITMAP
00
ENDCHAR
STARTCHAR 160
ENCODING 160
SWIDTH 640 0
DWIDTH 8 0
BBX 1 1 0 -1
BITMAP
00
ENDCHAR
STARTCHAR 161
ENCODING 161
SWIDTH 640 0
DWIDTH 8 0
BBX 8 9 0 -1
BITMAP
38
7c
c6
c6
c6
fe
c6
ce
07
ENDCHAR
STARTCHAR 162
ENCODING 162
SWIDTH 640 0
DWIDTH 8 0
BBX 7 3 0 6
BITMAP
c6
c6
7c
ENDCHAR
STARTCHAR 163
ENCODING 163
SWIDTH 640 0
DWIDTH 8 0
BBX 7 8 0 0
BITMAP
60
78
70
60
e0
e0
62
7e
ENDCHAR
STARTCHAR 164
ENCODING 164
SWIDTH 640 0
DWIDTH 8 0
BBX 7 7 0 1
BITMAP
c6
fe
6c
44
6c
fe
c6
ENDCHAR
STARTCHAR 165
ENCODING 165
SWIDTH 640 0
DWIDTH 8 0
BBX 7 9 0 0
BITMAP
1c
cc
cc
d8
c0
c0
c0
c2
fe
ENDCHAR
STARTCHAR 166
ENCODING 166
SWIDTH 640 0
DWIDTH 8 0
BBX 7 11 0 0
BITMAP
1c
70
00
7c
c6
c0
78
1c
06
c6
7c
ENDCHAR
STARTCHAR 167
ENCODING 167
SWIDTH 640 0
DWIDTH 8 0
BBX 6 10 1 0
BITMAP
78
cc
c0
78
cc
cc
78
0c
cc
78
ENDCHAR
STARTCHAR 168
ENCODING 168
SWIDTH 640 0
DWIDTH 8 0
BBX 5 2 1 8
BITMAP
d8
d8
ENDCHAR
STARTCHAR 169
ENCODING 169
SWIDTH 640 0
DWIDTH 8 0
BBX 7 11 0 0
BITMAP
6c
38
00
7c
c6
c0
78
1c
06
c6
7c
ENDCHAR
STARTCHAR 170
ENCODING 170
SWIDTH 640 0
DWIDTH 8 0
BBX 7 9 0 -1
BITMAP
7c
c6
c0
78
1c
06
c6
7c
38
ENDCHAR
STARTCHAR 171
ENCODING 171
SWIDTH 640 0
DWIDTH 8 0
BBX 6 11 1 0
BITMAP
cc
78
00
fc
30
30
30
30
30
30
30
ENDCHAR
STARTCHAR 172
ENCODING 172
SWIDTH 640 0
DWIDTH 8 0
BBX 7 11 0 0
BITMAP
1c
70
00
fe
06
0c
18
30
60
c0
fe
ENDCHAR
STARTCHAR 173
ENCODING 173
SWIDTH 640 0
DWIDTH 8 0
BBX 6 2 1 4
BITMAP
fc
fc
ENDCHAR
STARTCHAR 174
ENCODING 174
SWIDTH 640 0
DWIDTH 8 0
BBX 7 11 0 0
BITMAP
6c
38
00
fe
06
0c
18
30
60
c0
fe
ENDCHAR
STARTCHAR 175
ENCODING 175
SWIDTH 640 0
DWIDTH 8 0
BBX 7 11 0 0
BITMAP
30
30
00
fe
06
0c
18
30
60
c0
fe
ENDCHAR
STARTCHAR 176
ENCODING 176
SWIDTH 640 0
DWIDTH 8 0
BBX 6 4 1 6
BITMAP
78
cc
cc
78
ENDCHAR
STARTCHAR 177
ENCODING 177
SWIDTH 640 0
DWIDTH 8 0
BBX 8 7 0 -1
BITMAP
7c
06
7e
c6
ce
7e
07
ENDCHAR
STARTCHAR 178
ENCODING 178
SWIDTH 640 0
DWIDTH 8 0
BBX 5 3 2 -1
BITMAP
60
c0
78
ENDCHAR
STARTCHAR 179
ENCODING 179
SWIDTH 640 0
DWIDTH 8 0
BBX 4 9 2 0
BITMAP
e0
60
70
60
60
e0
60
60
f0
ENDCHAR
STARTCHAR 180
ENCODING 180
SWIDTH 640 0
DWIDTH 8 0
BBX 4 3 2 7
BITMAP
30
60
c0
ENDCHAR
STARTCHAR 181
ENCODING 181
SWIDTH 640 0
DWIDTH 8 0
BBX 6 11 2 0
BITMAP
1c
0c
ec
68
60
60
60
60
60
60
f0
ENDCHAR
STARTCHAR 182
ENCODING 182
SWIDTH 640 0
DWIDTH 8 0
BBX 7 10 0 0
BITMAP
0c
18
30
00
7c
c6
70
1c
c6
7c
ENDCHAR
STARTCHAR 183
ENCODING 183
SWIDTH 640 0
DWIDTH 8 0
BBX 6 3 1 7
BITMAP
cc
78
30
ENDCHAR
STARTCHAR 184
ENCODING 184
SWIDTH 640 0
DWIDTH 8 0
BBX 5 3 1 -1
BITMAP
30
18
f0
ENDCHAR
STARTCHAR 185
ENCODING 185
SWIDTH 640 0
DWIDTH 8 0
BBX 7 9 0 0
BITMAP
6c
38
00
7c
c6
70
1c
c6
7c
ENDCHAR
STARTCHAR 186
ENCODING 186
SWIDTH 640 0
DWIDTH 8 0
BBX 7 7 0 -1
BITMAP
7c
c6
70
1c
c6
7c
38
ENDCHAR
STARTCHAR 187
ENCODING 187
SWIDTH 640 0
DWIDTH 8 0
BBX 7 10 0 0
BITMAP
0e
06
6c
60
fc
60
60
60
66
3c
ENDCHAR
STARTCHAR 188
ENCODING 188
SWIDTH 640 0
DWIDTH 8 0
BBX 7 10 0 0
BITMAP
0c
18
30
00
fe
0c
18
30
60
fe
ENDCHAR
STARTCHAR 189
ENCODING 189
SWIDTH 640 0
DWIDTH 8 0
BBX 8 3 0 7
BITMAP
33
66
cc
ENDCHAR
STARTCHAR 190
ENCODING 190
SWIDTH 640 0
DWIDTH 8 0
BBX 7 9 0 0
BITMAP
6c
38
00
fe
0c
18
30
60
fe
ENDCHAR
STARTCHAR 191
ENCODING 191
SWIDTH 640 0
DWIDTH 8 0
BBX 7 9 0 0
BITMAP
38
38
00
fe
0c
18
30
60
fe
ENDCHAR
STARTCHAR 192
ENCODING 192
SWIDTH 640 0
DWIDTH 8 0
BBX 7 11 0 0
BITMAP
1c
70
00
fc
c6
c6
c6
fc
f8
cc
c6
ENDCHAR
STARTCHAR 193
ENCODING 193
SWIDTH 640 0
DWIDTH 8 0
BBX 7 11 0 0
BITMAP
0e
38
00
38
7c
c6
c6
c6
fe
c6
c6
ENDCHAR
STARTCHAR 194
ENCODING 194
SWIDTH 640 0
DWIDTH 8 0
BBX 7 11 0 0
BITMAP
38
6c
00
38
7c
c6
c6
c6
fe
c6
c6
ENDCHAR
STARTCHAR 195
ENCODING 195
SWIDTH 640 0
DWIDTH 8 0
BBX 7 11 0 0
BITMAP
c6
7c
00
38
7c
c6
c6
c6
fe
c6
c6
ENDCHAR
STARTCHAR 196
ENCODING 196
SWIDTH 640 0
DWIDTH 8 0
BBX 7 11 0 0
BITMAP
6c
6c
00
38
7c
c6
c6
c6
fe
c6
c6
ENDCHAR
STARTCHAR 197
ENCODING 197
SWIDTH 640 0
DWIDTH 8 0
BBX 7 11 0 0
BITMAP
1c
70
00
c0
c0
c0
c0
c0
c0
c2
fe
ENDCHAR
STARTCHAR 198
ENCODING 198
SWIDTH 640 0
DWIDTH 8 0
BBX 7 11 0 0
BITMAP
0e
38
00
7c
e6
c0
c0
c0
c0
e6
7c
ENDCHAR
STARTCHAR 199
ENCODING 199
SWIDTH 640 0
DWIDTH 8 0
BBX 7 9 0 -1
BITMAP
7c
e6
c0
c0
c0
e6
7c
0c
78
ENDCHAR
STARTCHAR 200
ENCODING 200
SWIDTH 640 0
DWIDTH 8 0
BBX 7 11 0 0
BITMAP
6c
38
00
7c
e6
c0
c0
c0
c0
e6
7c
ENDCHAR
STARTCHAR 201
ENCODING 201
SWIDTH 640 0
DWIDTH 8 0
BBX 7 11 0 0
BITMAP
0e
38
00
fe
c2
c0
f8
c0
c0
c2
fe
ENDCHAR
STARTCHAR 202
ENCODING 202
SWIDTH 640 0
DWIDTH 8 0
BBX 7 9 0 -1
BITMAP
fe
c2
c0
f8
c0
c0
fe
18
0e
ENDCHAR
STARTCHAR 203
ENCODING 203
SWIDTH 640 0
DWIDTH 8 0
BBX 7 11 0 0
BITMAP
6c
6c
00
fe
c2
c0
f8
c0
c0
c2
fe
ENDCHAR
STARTCHAR 204
ENCODING 204
SWIDTH 640 0
DWIDTH 8 0
BBX 7 11 0 0
BITMAP
6c
38
00
fe
c2
c0
f8
c0
c0
c2
fe
ENDCHAR
STARTCHAR 205
ENCODING 205
SWIDTH 640 0
DWIDTH 8 0
BBX 5 11 2 0
BITMAP
38
e0
00
f0
60
60
60
60
60
60
f0
ENDCHAR
STARTCHAR 206
ENCODING 206
SWIDTH 640 0
DWIDTH 8 0
BBX 6 11 1 0
BITMAP
78
cc
00
78
30
30
30
30
30
30
78
ENDCHAR
STARTCHAR 207
ENCODING 207
SWIDTH 640 0
DWIDTH 8 0
BBX 7 11 0 0
BITMAP
6c
38
00
fc
66
66
66
66
66
66
fc
ENDCHAR
STARTCHAR 208
ENCODING 208
SWIDTH 640 0
DWIDTH 8 0
BBX 7 8 0 0
BITMAP
fc
66
66
f6
66
66
66
fc
ENDCHAR
STARTCHAR 209
ENCODING 209
SWIDTH 640 0
DWIDTH 8 0
BBX 7 11 0 0
BITMAP
0e
38
00
c6
e6
e6
f6
de
ce
ce
c6
ENDCHAR
STARTCHAR 210
ENCODING 210
SWIDTH 640 0
DWIDTH 8 0
BBX 7 11 0 0
BITMAP
6c
38
00
c6
e6
e6
f6
de
ce
ce
c6
ENDCHAR
STARTCHAR 211
ENCODING 211
SWIDTH 640 0
DWIDTH 8 0
BBX 7 11 0 0
BITMAP
0e
38
00
7c
c6
c6
c6
c6
c6
c6
7c
ENDCHAR
STARTCHAR 212
ENCODING 212
SWIDTH 640 0
DWIDTH 8 0
BBX 7 11 0 0
BITMAP
38
6c
00
7c
c6
c6
c6
c6
c6
c6
7c
ENDCHAR
STARTCHAR 213
ENCODING 213
SWIDTH 640 0
DWIDTH 8 0
BBX 7 11 0 0
BITMAP
66
cc
00
7c
c6
c6
c6
c6
c6
c6
7c
ENDCHAR
STARTCHAR 214
ENCODING 214
SWIDTH 640 0
DWIDTH 8 0
BBX 7 11 0 0
BITMAP
6c
6c
00
7c
c6
c6
c6
c6
c6
c6
7c
ENDCHAR
STARTCHAR 215
ENCODING 215
SWIDTH 640 0
DWIDTH 8 0
BBX 7 6 0 1
BITMAP
c6
6c
38
38
6c
c6
ENDCHAR
STARTCHAR 216
ENCODING 216
SWIDTH 640 0
DWIDTH 8 0
BBX 7 11 0 0
BITMAP
6c
38
00
fc
c6
c6
c6
fc
f8
cc
c6
ENDCHAR
STARTCHAR 217
ENCODING 217
SWIDTH 640 0
DWIDTH 8 0
BBX 7 11 0 0
BITMAP
10
28
10
c6
c6
c6
c6
c6
c6
c6
7c
ENDCHAR
STARTCHAR 218
ENCODING 218
SWIDTH 640 0
DWIDTH 8 0
BBX 7 11 0 0
BITMAP
0e
38
00
c6
c6
c6
c6
c6
c6
c6
7c
ENDCHAR
STARTCHAR 219
ENCODING 219
SWIDTH 640 0
DWIDTH 8 0
BBX 7 11 0 0
BITMAP
66
cc
00
c6
c6
c6
c6
c6
c6
c6
7c
ENDCHAR
STARTCHAR 220
ENCODING 220
SWIDTH 640 0
DWIDTH 8 0
BBX 7 11 0 0
BITMAP
6c
6c
00
c6
c6
c6
c6
c6
c6
c6
7c
ENDCHAR
STARTCHAR 221
ENCODING 221
SWIDTH 640 0
DWIDTH 8 0
BBX 6 11 1 0
BITMAP
1c
70
00
cc
cc
cc
78
30
30
30
30
ENDCHAR
STARTCHAR 222
ENCODING 222
SWIDTH 640 0
DWIDTH 8 0
BBX 6 9 1 -1
BITMAP
fc
30
30
30
30
30
30
18
70
ENDCHAR
STARTCHAR 223
ENCODING 223
SWIDTH 640 0
DWIDTH 8 0
BBX 7 10 0 -1
BITMAP
3c
66
c6
dc
c6
c6
c6
e6
dc
80
ENDCHAR
STARTCHAR 224
ENCODING 224
SWIDTH 640 0
DWIDTH 8 0
BBX 7 10 0 0
BITMAP
0c
18
30
00
fc
e6
c0
c0
c0
c0
ENDCHAR
STARTCHAR 225
ENCODING 225
SWIDTH 640 0
DWIDTH 8 0
BBX 7 10 0 0
BITMAP
0c
18
30
00
7c
06
7e
c6
ce
7e
ENDCHAR
STARTCHAR 226
ENCODING 226
SWIDTH 640 0
DWIDTH 8 0
BBX 7 10 0 0
BITMAP
10
38
6c
00
7c
06
7e
c6
ce
7e
ENDCHAR
STARTCHAR 227
ENCODING 227
SWIDTH 640 0
DWIDTH 8 0
BBX 7 9 0 0
BITMAP
c6
7c
00
7c
06
7e
c6
ce
7e
ENDCHAR
STARTCHAR 228
ENCODING 228
SWIDTH 640 0
DWIDTH 8 0
BBX 7 10 0 0
BITMAP
6c
6c
00
00
7c
06
7e
c6
ce
7e
ENDCHAR
STARTCHAR 229
ENCODING 229
SWIDTH 640 0
DWIDTH 8 0
BBX 5 11 2 0
BITMAP
38
e0
00
e0
60
60
60
60
60
60
f0
ENDCHAR
STARTCHAR 230
ENCODING 230
SWIDTH 640 0
DWIDTH 8 0
BBX 7 10 0 0
BITMAP
0c
18
30
00
7c
e6
c0
c0
e6
7c
ENDCHAR
STARTCHAR 231
ENCODING 231
SWIDTH 640 0
DWIDTH 8 0
BBX 7 7 0 -1
BITMAP
7c
e6
c0
e6
7c
18
70
ENDCHAR
STARTCHAR 232
ENCODING 232
SWIDTH 640 0
DWIDTH 8 0
BBX 7 9 0 0
BITMAP
6c
38
00
7c
e6
c0
c0
e6
7c
ENDCHAR
STARTCHAR 233
ENCODING 233
SWIDTH 640 0
DWIDTH 8 0
BBX 7 10 0 0
BITMAP
0c
18
30
00
7c
c6
c6
fe
c0
7c
ENDCHAR
STARTCHAR 234
ENCODING 234
SWIDTH 640 0
DWIDTH 8 0
BBX 7 7 0 -1
BITMAP
7c
c6
fe
c0
7c
18
0e
ENDCHAR
STARTCHAR 235
ENCODING 235
SWIDTH 640 0
DWIDTH 8 0
BBX 7 9 0 0
BITMAP
6c
6c
00
7c
c6
c6
fe
c0
7c
ENDCHAR
STARTCHAR 236
ENCODING 236
SWIDTH 640 0
DWIDTH 8 0
BBX 7 9 0 0
BITMAP
6c
38
00
7c
c6
c6
fe
c0
7c
ENDCHAR
STARTCHAR 237
ENCODING 237
SWIDTH 640 0
DWIDTH 8 0
BBX 4 10 2 0
BITMAP
30
60
c0
00
e0
60
60
60
60
f0
ENDCHAR
STARTCHAR 238
ENCODING 238
SWIDTH 640 0
DWIDTH 8 0
BBX 6 10 1 0
BITMAP
30
78
cc
00
70
30
30
30
30
78
ENDCHAR
STARTCHAR 239
ENCODING 239
SWIDTH 640 0
DWIDTH 8 0
BBX 8 11 0 0
BITMAP
03
01
0d
0e
0c
7c
dc
cc
cc
dc
7c
ENDCHAR
STARTCHAR 240
ENCODING 240
SWIDTH 640 0
DWIDTH 8 0
BBX 8 9 0 0
BITMAP
06
1f
06
7e
ce
c6
c6
ce
7e
ENDCHAR
STARTCHAR 241
ENCODING 241
SWIDTH 640 0
DWIDTH 8 0
BBX 7 10 0 0
BITMAP
0c
18
30
00
fc
e6
c6
c6
c6
c6
ENDCHAR
STARTCHAR 242
ENCODING 242
SWIDTH 640 0
DWIDTH 8 0
BBX 7 9 0 0
BITMAP
6c
38
00
fc
e6
c6
c6
c6
c6
ENDCHAR
STARTCHAR 243
ENCODING 243
SWIDTH 640 0
DWIDTH 8 0
BBX 7 10 0 0
BITMAP
0c
18
30
00
7c
c6
c6
c6
c6
7c
ENDCHAR
STARTCHAR 244
ENCODING 244
SWIDTH 640 0
DWIDTH 8 0
BBX 7 10 0 0
BITMAP
10
38
6c
00
7c
c6
c6
c6
c6
7c
ENDCHAR
STARTCHAR 245
ENCODING 245
SWIDTH 640 0
DWIDTH 8 0
BBX 8 10 0 0
BITMAP
33
66
cc
00
7c
c6
c6
c6
c6
7c
ENDCHAR
STARTCHAR 246
ENCODING 246
SWIDTH 640 0
DWIDTH 8 0
BBX 7 10 0 0
BITMAP
6c
6c
00
00
7c
c6
c6
c6
c6
7c
ENDCHAR
STARTCHAR 247
ENCODING 247
SWIDTH 640 0
DWIDTH 8 0
BBX 6 7 1 1
BITMAP
30
30
00
fc
00
30
30
ENDCHAR
STARTCHAR 248
ENCODING 248
SWIDTH 640 0
DWIDTH 8 0
BBX 7 9 0 0
BITMAP
6c
38
00
fc
e6
c0
c0
c0
c0
ENDCHAR
STARTCHAR 249
ENCODING 249
SWIDTH 640 0
DWIDTH 8 0
BBX 7 10 0 0
BITMAP
38
44
38
00
c6
c6
c6
c6
ce
7e
ENDCHAR
STARTCHAR 250
ENCODING 250
SWIDTH 640 0
DWIDTH 8 0
BBX 7 10 0 0
BITMAP
0c
18
30
00
c6
c6
c6
c6
ce
7e
ENDCHAR
STARTCHAR 251
ENCODING 251
SWIDTH 640 0
DWIDTH 8 0
BBX 8 10 0 0
BITMAP
33
66
cc
00
c6
c6
c6
c6
ce
7e
ENDCHAR
STARTCHAR 252
ENCODING 252
SWIDTH 640 0
DWIDTH 8 0
BBX 7 10 0 0
BITMAP
6c
6c
00
00
c6
c6
c6
c6
ce
7e
ENDCHAR
STARTCHAR 253
ENCODING 253
SWIDTH 640 0
DWIDTH 8 0
BBX 7 11 0 -1
BITMAP
0c
18
30
00
c6
c6
c6
ce
7e
06
7c
ENDCHAR
STARTCHAR 254
ENCODING 254
SWIDTH 640 0
DWIDTH 8 0
BBX 7 9 0 -1
BITMAP
60
60
fc
60
60
66
3c
18
70
ENDCHAR
STARTCHAR 255
ENCODING 255
SWIDTH 640 0
DWIDTH 8 0
BBX 2 2 3 7
BITMAP
c0
c0
ENDCHAR
ENDFONT
